<mxfile host="65bd71144e">
    <diagram id="8Ki-aOzLSQ_g2EfR3IUz" name="Page-1">
        <mxGraphModel dx="686" dy="490" grid="1" gridSize="10" guides="1" tooltips="1" connect="1" arrows="1" fold="1" page="1" pageScale="1" pageWidth="827" pageHeight="1169" math="0" shadow="0">
            <root>
                <mxCell id="0"/>
                <mxCell id="1" parent="0"/>
                <mxCell id="3" value="工作项" style="ellipse;whiteSpace=wrap;html=1;align=center;newEdgeStyle={&quot;edgeStyle&quot;:&quot;entityRelationEdgeStyle&quot;,&quot;startArrow&quot;:&quot;none&quot;,&quot;endArrow&quot;:&quot;none&quot;,&quot;segment&quot;:10,&quot;curved&quot;:1};treeFolding=1;treeMoving=1;" parent="1" vertex="1">
                    <mxGeometry x="110" y="180" width="100" height="40" as="geometry"/>
                </mxCell>
                <mxCell id="8" value="基础配置" style="whiteSpace=wrap;html=1;rounded=1;arcSize=50;align=center;verticalAlign=middle;strokeWidth=1;autosize=1;spacing=4;treeFolding=1;treeMoving=1;newEdgeStyle={&quot;edgeStyle&quot;:&quot;entityRelationEdgeStyle&quot;,&quot;startArrow&quot;:&quot;none&quot;,&quot;endArrow&quot;:&quot;none&quot;,&quot;segment&quot;:10,&quot;curved&quot;:1};" parent="1" vertex="1">
                    <mxGeometry x="240" y="128" width="90" height="30" as="geometry"/>
                </mxCell>
                <mxCell id="9" value="" style="edgeStyle=entityRelationEdgeStyle;startArrow=none;endArrow=none;segment=10;curved=1;exitX=1;exitY=0.5;exitDx=0;exitDy=0;" parent="1" source="3" target="8" edge="1">
                    <mxGeometry relative="1" as="geometry">
                        <mxPoint x="270" y="200" as="sourcePoint"/>
                    </mxGeometry>
                </mxCell>
                <mxCell id="10" value="工作目录" style="whiteSpace=wrap;html=1;shape=partialRectangle;top=0;left=0;bottom=1;right=0;points=[[0,1],[1,1]];fillColor=none;align=center;verticalAlign=bottom;routingCenterY=0.5;snapToPoint=1;recursiveResize=0;autosize=1;treeFolding=1;treeMoving=1;newEdgeStyle={&quot;edgeStyle&quot;:&quot;entityRelationEdgeStyle&quot;,&quot;startArrow&quot;:&quot;none&quot;,&quot;endArrow&quot;:&quot;none&quot;,&quot;segment&quot;:10,&quot;curved&quot;:1};" parent="1" vertex="1">
                    <mxGeometry x="374" y="90" width="80" height="20" as="geometry"/>
                </mxCell>
                <mxCell id="11" value="" style="edgeStyle=entityRelationEdgeStyle;startArrow=none;endArrow=none;segment=10;curved=1;exitX=1;exitY=0.5;exitDx=0;exitDy=0;" parent="1" source="8" target="10" edge="1">
                    <mxGeometry relative="1" as="geometry">
                        <mxPoint x="360" y="140" as="sourcePoint"/>
                    </mxGeometry>
                </mxCell>
                <mxCell id="12" value="脚本" style="whiteSpace=wrap;html=1;shape=partialRectangle;top=0;left=0;bottom=1;right=0;points=[[0,1],[1,1]];fillColor=none;align=center;verticalAlign=bottom;routingCenterY=0.5;snapToPoint=1;recursiveResize=0;autosize=1;treeFolding=1;treeMoving=1;newEdgeStyle={&quot;edgeStyle&quot;:&quot;entityRelationEdgeStyle&quot;,&quot;startArrow&quot;:&quot;none&quot;,&quot;endArrow&quot;:&quot;none&quot;,&quot;segment&quot;:10,&quot;curved&quot;:1};" parent="1" vertex="1">
                    <mxGeometry x="374" y="120" width="60" height="20" as="geometry"/>
                </mxCell>
                <mxCell id="13" value="" style="edgeStyle=entityRelationEdgeStyle;startArrow=none;endArrow=none;segment=10;curved=1;exitX=1;exitY=0.5;exitDx=0;exitDy=0;" parent="1" source="8" target="12" edge="1">
                    <mxGeometry relative="1" as="geometry">
                        <mxPoint x="350" y="180" as="sourcePoint"/>
                    </mxGeometry>
                </mxCell>
                <mxCell id="14" value="扩展配置" style="whiteSpace=wrap;html=1;rounded=1;arcSize=50;align=center;verticalAlign=middle;strokeWidth=1;autosize=1;spacing=4;treeFolding=1;treeMoving=1;newEdgeStyle={&quot;edgeStyle&quot;:&quot;entityRelationEdgeStyle&quot;,&quot;startArrow&quot;:&quot;none&quot;,&quot;endArrow&quot;:&quot;none&quot;,&quot;segment&quot;:10,&quot;curved&quot;:1};" parent="1" vertex="1">
                    <mxGeometry x="240" y="240" width="90" height="30" as="geometry"/>
                </mxCell>
                <mxCell id="15" value="" style="edgeStyle=entityRelationEdgeStyle;startArrow=none;endArrow=none;segment=10;curved=1;exitX=1;exitY=0.5;exitDx=0;exitDy=0;" parent="1" source="3" target="14" edge="1">
                    <mxGeometry relative="1" as="geometry">
                        <mxPoint x="218" y="250" as="sourcePoint"/>
                    </mxGeometry>
                </mxCell>
                <mxCell id="16" value="Git" style="whiteSpace=wrap;html=1;shape=partialRectangle;top=0;left=0;bottom=1;right=0;points=[[0,1],[1,1]];fillColor=none;align=center;verticalAlign=bottom;routingCenterY=0.5;snapToPoint=1;recursiveResize=0;autosize=1;treeFolding=1;treeMoving=1;newEdgeStyle={&quot;edgeStyle&quot;:&quot;entityRelationEdgeStyle&quot;,&quot;startArrow&quot;:&quot;none&quot;,&quot;endArrow&quot;:&quot;none&quot;,&quot;segment&quot;:10,&quot;curved&quot;:1};" parent="1" vertex="1">
                    <mxGeometry x="374" y="220" width="50" height="20" as="geometry"/>
                </mxCell>
                <mxCell id="17" value="" style="edgeStyle=entityRelationEdgeStyle;startArrow=none;endArrow=none;segment=10;curved=1;exitX=1;exitY=0.5;exitDx=0;exitDy=0;" parent="1" source="14" target="16" edge="1">
                    <mxGeometry relative="1" as="geometry">
                        <mxPoint x="324" y="260" as="sourcePoint"/>
                    </mxGeometry>
                </mxCell>
                <mxCell id="18" value="Gitee" style="whiteSpace=wrap;html=1;shape=partialRectangle;top=0;left=0;bottom=1;right=0;points=[[0,1],[1,1]];fillColor=none;align=center;verticalAlign=bottom;routingCenterY=0.5;snapToPoint=1;recursiveResize=0;autosize=1;treeFolding=1;treeMoving=1;newEdgeStyle={&quot;edgeStyle&quot;:&quot;entityRelationEdgeStyle&quot;,&quot;startArrow&quot;:&quot;none&quot;,&quot;endArrow&quot;:&quot;none&quot;,&quot;segment&quot;:10,&quot;curved&quot;:1};" parent="1" vertex="1">
                    <mxGeometry x="374" y="300" width="60" height="20" as="geometry"/>
                </mxCell>
                <mxCell id="19" value="" style="edgeStyle=entityRelationEdgeStyle;startArrow=none;endArrow=none;segment=10;curved=1;exitX=1;exitY=0.5;exitDx=0;exitDy=0;" parent="1" source="14" target="18" edge="1">
                    <mxGeometry relative="1" as="geometry">
                        <mxPoint x="340" y="320" as="sourcePoint"/>
                    </mxGeometry>
                </mxCell>
                <mxCell id="20" value="仓库地址" style="whiteSpace=wrap;html=1;shape=partialRectangle;top=0;left=0;bottom=1;right=0;points=[[0,1],[1,1]];fillColor=none;align=center;verticalAlign=bottom;routingCenterY=0.5;snapToPoint=1;recursiveResize=0;autosize=1;treeFolding=1;treeMoving=1;newEdgeStyle={&quot;edgeStyle&quot;:&quot;entityRelationEdgeStyle&quot;,&quot;startArrow&quot;:&quot;none&quot;,&quot;endArrow&quot;:&quot;none&quot;,&quot;segment&quot;:10,&quot;curved&quot;:1};" parent="1" vertex="1">
                    <mxGeometry x="460" y="190" width="80" height="20" as="geometry"/>
                </mxCell>
                <mxCell id="21" value="" style="edgeStyle=entityRelationEdgeStyle;startArrow=none;endArrow=none;segment=10;curved=1;exitX=1;exitY=1;exitDx=0;exitDy=0;" parent="1" source="16" target="20" edge="1">
                    <mxGeometry relative="1" as="geometry">
                        <mxPoint x="420" y="230" as="sourcePoint"/>
                    </mxGeometry>
                </mxCell>
                <mxCell id="22" value="分支" style="whiteSpace=wrap;html=1;shape=partialRectangle;top=0;left=0;bottom=1;right=0;points=[[0,1],[1,1]];fillColor=none;align=center;verticalAlign=bottom;routingCenterY=0.5;snapToPoint=1;recursiveResize=0;autosize=1;treeFolding=1;treeMoving=1;newEdgeStyle={&quot;edgeStyle&quot;:&quot;entityRelationEdgeStyle&quot;,&quot;startArrow&quot;:&quot;none&quot;,&quot;endArrow&quot;:&quot;none&quot;,&quot;segment&quot;:10,&quot;curved&quot;:1};" parent="1" vertex="1">
                    <mxGeometry x="460" y="220" width="60" height="20" as="geometry"/>
                </mxCell>
                <mxCell id="23" value="" style="edgeStyle=entityRelationEdgeStyle;startArrow=none;endArrow=none;segment=10;curved=1;exitX=1;exitY=1;exitDx=0;exitDy=0;" parent="1" source="16" target="22" edge="1">
                    <mxGeometry relative="1" as="geometry">
                        <mxPoint x="424" y="260" as="sourcePoint"/>
                    </mxGeometry>
                </mxCell>
                <mxCell id="24" value="tag" style="whiteSpace=wrap;html=1;shape=partialRectangle;top=0;left=0;bottom=1;right=0;points=[[0,1],[1,1]];fillColor=none;align=center;verticalAlign=bottom;routingCenterY=0.5;snapToPoint=1;recursiveResize=0;autosize=1;treeFolding=1;treeMoving=1;newEdgeStyle={&quot;edgeStyle&quot;:&quot;entityRelationEdgeStyle&quot;,&quot;startArrow&quot;:&quot;none&quot;,&quot;endArrow&quot;:&quot;none&quot;,&quot;segment&quot;:10,&quot;curved&quot;:1};" parent="1" vertex="1">
                    <mxGeometry x="460" y="250" width="50" height="20" as="geometry"/>
                </mxCell>
                <mxCell id="25" value="" style="edgeStyle=entityRelationEdgeStyle;startArrow=none;endArrow=none;segment=10;curved=1;exitX=1;exitY=1;exitDx=0;exitDy=0;" parent="1" source="16" target="24" edge="1">
                    <mxGeometry relative="1" as="geometry">
                        <mxPoint x="450" y="300" as="sourcePoint"/>
                    </mxGeometry>
                </mxCell>
                <mxCell id="26" value="webhook地址" style="whiteSpace=wrap;html=1;shape=partialRectangle;top=0;left=0;bottom=1;right=0;points=[[0,1],[1,1]];fillColor=none;align=center;verticalAlign=bottom;routingCenterY=0.5;snapToPoint=1;recursiveResize=0;autosize=1;treeFolding=1;treeMoving=1;newEdgeStyle={&quot;edgeStyle&quot;:&quot;entityRelationEdgeStyle&quot;,&quot;startArrow&quot;:&quot;none&quot;,&quot;endArrow&quot;:&quot;none&quot;,&quot;segment&quot;:10,&quot;curved&quot;:1};" parent="1" vertex="1">
                    <mxGeometry x="490" y="290" width="100" height="20" as="geometry"/>
                </mxCell>
                <mxCell id="27" value="" style="edgeStyle=entityRelationEdgeStyle;startArrow=none;endArrow=none;segment=10;curved=1;exitX=1;exitY=1;exitDx=0;exitDy=0;" parent="1" source="18" target="26" edge="1">
                    <mxGeometry relative="1" as="geometry">
                        <mxPoint x="470" y="340" as="sourcePoint"/>
                    </mxGeometry>
                </mxCell>
                <mxCell id="28" value="身份验证：密码/签名" style="whiteSpace=wrap;html=1;shape=partialRectangle;top=0;left=0;bottom=1;right=0;points=[[0,1],[1,1]];fillColor=none;align=center;verticalAlign=bottom;routingCenterY=0.5;snapToPoint=1;recursiveResize=0;autosize=1;treeFolding=1;treeMoving=1;newEdgeStyle={&quot;edgeStyle&quot;:&quot;entityRelationEdgeStyle&quot;,&quot;startArrow&quot;:&quot;none&quot;,&quot;endArrow&quot;:&quot;none&quot;,&quot;segment&quot;:10,&quot;curved&quot;:1};" parent="1" vertex="1">
                    <mxGeometry x="490" y="320" width="140" height="20" as="geometry"/>
                </mxCell>
                <mxCell id="29" value="" style="edgeStyle=entityRelationEdgeStyle;startArrow=none;endArrow=none;segment=10;curved=1;exitX=1;exitY=1;exitDx=0;exitDy=0;" parent="1" source="18" target="28" edge="1">
                    <mxGeometry relative="1" as="geometry">
                        <mxPoint x="430" y="330" as="sourcePoint"/>
                    </mxGeometry>
                </mxCell>
                <mxCell id="30" value="触发事件" style="whiteSpace=wrap;html=1;shape=partialRectangle;top=0;left=0;bottom=1;right=0;points=[[0,1],[1,1]];fillColor=none;align=center;verticalAlign=bottom;routingCenterY=0.5;snapToPoint=1;recursiveResize=0;autosize=1;treeFolding=1;treeMoving=1;newEdgeStyle={&quot;edgeStyle&quot;:&quot;entityRelationEdgeStyle&quot;,&quot;startArrow&quot;:&quot;none&quot;,&quot;endArrow&quot;:&quot;none&quot;,&quot;segment&quot;:10,&quot;curved&quot;:1};" parent="1" vertex="1">
                    <mxGeometry x="490" y="350" width="80" height="20" as="geometry"/>
                </mxCell>
                <mxCell id="31" value="" style="edgeStyle=entityRelationEdgeStyle;startArrow=none;endArrow=none;segment=10;curved=1;exitX=1;exitY=1;exitDx=0;exitDy=0;" parent="1" source="18" target="30" edge="1">
                    <mxGeometry relative="1" as="geometry">
                        <mxPoint x="490" y="410" as="sourcePoint"/>
                    </mxGeometry>
                </mxCell>
                <mxCell id="32" value="扩展配置标识" style="whiteSpace=wrap;html=1;shape=partialRectangle;top=0;left=0;bottom=1;right=0;points=[[0,1],[1,1]];fillColor=none;align=center;verticalAlign=bottom;routingCenterY=0.5;snapToPoint=1;recursiveResize=0;autosize=1;treeFolding=1;treeMoving=1;newEdgeStyle={&quot;edgeStyle&quot;:&quot;entityRelationEdgeStyle&quot;,&quot;startArrow&quot;:&quot;none&quot;,&quot;endArrow&quot;:&quot;none&quot;,&quot;segment&quot;:10,&quot;curved&quot;:1};" vertex="1" parent="1">
                    <mxGeometry x="374" y="150" width="100" height="20" as="geometry"/>
                </mxCell>
                <mxCell id="33" value="" style="edgeStyle=entityRelationEdgeStyle;startArrow=none;endArrow=none;segment=10;curved=1;exitX=1;exitY=0.5;exitDx=0;exitDy=0;" edge="1" target="32" parent="1" source="8">
                    <mxGeometry relative="1" as="geometry">
                        <mxPoint x="334" y="198" as="sourcePoint"/>
                    </mxGeometry>
                </mxCell>
            </root>
        </mxGraphModel>
    </diagram>
</mxfile>